<?xml version="1.0" encoding="UTF-8"?>
<svg id="Layer_1" xmlns="http://www.w3.org/2000/svg" viewBox="0 0 752 752">
  <defs>
    <style>
      .cls-1 {
        fill: #e5e5e4;
        stroke: #000;
        stroke-miterlimit: 10;
        stroke-width: 20px;
      }
    </style>
  </defs>
  <path class="cls-1" d="M682.72,461.43c-4.87,1.1-8.78,4.71-10.3,9.47-5.28,16.5-11.89,32.41-19.72,47.58-2.29,4.44-2.09,9.76.58,13.99l23.44,37.11c3.01,4.77,2.91,10.89-.32,15.51-24.8,35.56-55.75,66.51-91.31,91.31-4.63,3.23-10.75,3.33-15.51.32l-37.11-23.44c-4.23-2.67-9.54-2.87-13.99-.58-15.18,7.83-31.08,14.45-47.58,19.72-4.76,1.52-8.37,5.43-9.47,10.3l-9.68,42.86c-1.24,5.5-5.64,9.75-11.19,10.74-20.95,3.73-42.53,5.68-64.55,5.68s-43.6-1.95-64.55-5.68c-5.55-.99-9.95-5.24-11.19-10.74l-9.68-42.86c-1.1-4.87-4.71-8.78-9.47-10.3-16.5-5.28-32.41-11.89-47.58-19.72-4.44-2.29-9.76-2.09-13.99.58l-37.11,23.44c-4.77,3.01-10.89,2.91-15.51-.32-35.56-24.8-66.51-55.75-91.31-91.31-3.23-4.63-3.33-10.75-.32-15.51l23.44-37.11c2.67-4.23,2.87-9.54.58-13.99-7.83-15.18-14.45-31.08-19.72-47.58-1.52-4.76-5.43-8.37-10.3-9.47l-42.86-9.68c-5.5-1.24-9.75-5.64-10.74-11.19-3.73-20.95-5.68-42.53-5.68-64.55s1.95-43.6,5.68-64.55c.99-5.55,5.24-9.95,10.74-11.19l42.86-9.68c4.87-1.1,8.78-4.71,10.3-9.47,5.28-16.5,11.89-32.41,19.72-47.58,2.29-4.44,2.09-9.76-.58-13.99l-23.44-37.11c-3.01-4.77-2.91-10.89.32-15.51,24.8-35.56,55.75-66.51,91.31-91.31,4.63-3.23,10.75-3.33,15.51-.32l37.11,23.44c4.23,2.67,9.54,2.87,13.99.58,15.18-7.83,31.08-14.45,47.58-19.72,4.76-1.52,8.37-5.43,9.47-10.3l9.68-42.86c1.24-5.5,5.64-9.75,11.19-10.74,20.95-3.73,42.53-5.68,64.55-5.68s43.6,1.95,64.55,5.68c5.55.99,9.95,5.24,11.19,10.74l9.68,42.86c1.1,4.87,4.71,8.78,9.47,10.3,16.5,5.28,32.41,11.89,47.58,19.72,4.44,2.29,9.76,2.09,13.99-.58l37.11-23.44c4.77-3.01,10.89-2.91,15.51.32,35.56,24.8,66.51,55.75,91.31,91.31,3.23,4.63,3.33,10.75.32,15.51l-23.44,37.11c-2.67,4.23-2.87,9.54-.58,13.99,7.83,15.18,14.45,31.08,19.72,47.58,1.52,4.76,5.43,8.37,10.3,9.47l42.86,9.68c5.5,1.24,9.75,5.64,10.74,11.19,3.73,20.95,5.68,42.53,5.68,64.55s-1.95,43.6-5.68,64.55c-.99,5.55-5.24,9.95-10.74,11.19l-42.86,9.68ZM539,376c0-90.02-72.98-163-163-163s-163,72.98-163,163,72.98,163,163,163,163-72.98,163-163Z"/>
</svg>